<svg t="1578463508326" class="icon" viewBox="0 0 1024 1024" version="1.1" xmlns="http://www.w3.org/2000/svg" p-id="3243" width="200" height="200"><path d="M641.896296 662.186667c-5.499259 0-10.903704-2.085926-15.075555-6.257778l-129.896297-129.896296c-8.343704-8.343704-8.343704-21.807407 0-30.151112s21.807407-8.343704 30.151112 0l129.896296 129.896297c8.343704 8.343704 8.343704 21.807407 0 30.151111-4.171852 4.171852-9.576296 6.257778-15.075556 6.257778z" p-id="3244" fill="#8a8a8a"></path><path d="M512 128c51.863704 0 102.115556 10.145185 149.428148 30.151111 45.700741 19.342222 86.755556 47.028148 122.026667 82.299259 35.271111 35.271111 62.957037 76.325926 82.299259 122.026667 20.100741 47.407407 30.245926 97.659259 30.245926 149.522963s-10.145185 102.115556-30.151111 149.428148c-19.342222 45.700741-47.028148 86.755556-82.299259 122.026667-35.271111 35.271111-76.325926 62.957037-122.026667 82.299259-47.407407 20.100741-97.659259 30.245926-149.522963 30.245926s-102.115556-10.145185-149.428148-30.151111c-45.700741-19.342222-86.755556-47.028148-122.026667-82.299259-35.271111-35.271111-62.957037-76.325926-82.299259-122.026667-20.100741-47.407407-30.245926-97.659259-30.245926-149.522963s10.145185-102.115556 30.151111-149.428148c19.342222-45.700741 47.028148-86.755556 82.299259-122.026667 35.271111-35.271111 76.325926-62.957037 122.026667-82.299259 47.407407-20.100741 97.659259-30.245926 149.522963-30.245926m0-42.666667C276.385185 85.333333 85.333333 276.385185 85.333333 512s191.051852 426.666667 426.666667 426.666667 426.666667-191.051852 426.666667-426.666667S747.614815 85.333333 512 85.333333z" p-id="3245" fill="#8a8a8a"></path><path d="M512 532.29037c-11.757037 0-21.333333-9.576296-21.333333-21.333333v-237.037037c0-11.757037 9.576296-21.333333 21.333333-21.333333s21.333333 9.576296 21.333333 21.333333v237.037037c0 11.757037-9.576296 21.333333-21.333333 21.333333z" p-id="3246" fill="#8a8a8a"></path></svg>